<?xml version="1.0" encoding="UTF-8" standalone="no"?>
<svg
   xmlns:dc="http://purl.org/dc/elements/1.1/"
   xmlns:cc="http://creativecommons.org/ns#"
   xmlns:rdf="http://www.w3.org/1999/02/22-rdf-syntax-ns#"
   xmlns:svg="http://www.w3.org/2000/svg"
   xmlns="http://www.w3.org/2000/svg"
   viewBox="0 0 780.71198 779.776"
   height="779.776"
   width="780.71198"
   xml:space="preserve"
   id="svg2"
   version="1.1"><metadata
     id="metadata8"><rdf:RDF><cc:Work
         rdf:about=""><dc:format>image/svg+xml</dc:format><dc:type
           rdf:resource="http://purl.org/dc/dcmitype/StillImage" /></cc:Work></rdf:RDF></metadata><defs
     id="defs6"><clipPath
       id="clipPath18"
       clipPathUnits="userSpaceOnUse"><path
         id="path16"
         d="M 0,584.832 H 585.534 V 0 H 0 Z" /></clipPath></defs><g
     transform="matrix(1.3333333,0,0,-1.3333333,0,779.776)"
     id="g10"><g
       id="g12"><g
         clip-path="url(#clipPath18)"
         id="g14"><g
           transform="translate(280.0601,566.7881)"
           id="g20"><path
             id="path22"
             style="fill:#763392;fill-opacity:1;fill-rule:nonzero;stroke:none"
             d="m 0,0 c 6.988,11.866 18.423,11.866 25.411,0 l 0.313,-0.532 c 6.988,-11.866 20.261,-13.216 29.494,-3 l 0.414,0.458 C 64.866,7.142 76.067,4.84 80.525,-8.189 l 0.199,-0.584 c 4.457,-13.03 17.186,-17.023 28.287,-8.873 l 0.494,0.363 c 11.101,8.149 21.609,3.641 23.352,-10.02 l 0.078,-0.613 c 1.743,-13.66 13.408,-20.134 25.922,-14.386 l 0.561,0.258 c 12.514,5.747 21.899,-0.784 20.855,-14.516 l -0.047,-0.617 c -1.044,-13.732 9.078,-22.422 22.493,-19.312 l 0.602,0.14 c 13.416,3.11 21.294,-5.178 17.508,-18.419 l -0.169,-0.59 c -3.786,-13.241 4.38,-23.791 18.147,-23.445 l 0.62,0.016 c 13.766,0.346 19.815,-9.359 13.44,-21.566 l -0.287,-0.55 c -6.375,-12.207 -0.5,-24.183 13.055,-26.613 l 0.608,-0.109 c 13.555,-2.43 17.527,-13.153 8.827,-23.828 l -0.392,-0.481 c -8.7,-10.675 -5.355,-23.59 7.433,-28.7 l 0.572,-0.228 c 12.788,-5.11 14.52,-16.413 3.849,-25.118 l -0.481,-0.392 c -10.671,-8.705 -9.994,-22.028 1.503,-29.607 l 0.516,-0.34 c 11.498,-7.579 10.92,-18.999 -1.285,-25.377 l -0.548,-0.287 c -12.205,-6.378 -14.225,-19.564 -4.489,-29.303 l 0.435,-0.435 c 9.736,-9.739 6.871,-20.809 -6.368,-24.601 l -0.591,-0.169 c -13.239,-3.792 -17.872,-16.304 -10.297,-27.804 l 0.339,-0.514 c 7.576,-11.5 2.539,-21.766 -11.192,-22.813 l -0.614,-0.047 c -13.731,-1.048 -20.789,-12.369 -15.683,-25.159 l 0.229,-0.575 c 5.106,-12.79 -1.894,-21.832 -15.555,-20.094 l -0.614,0.078 c -13.661,1.738 -22.853,-7.931 -20.426,-21.486 l 0.109,-0.607 c 2.426,-13.555 -6.25,-21.002 -19.281,-16.549 l -0.581,0.198 c -13.031,4.454 -23.981,-3.166 -24.334,-16.933 l -0.016,-0.615 c -0.352,-13.767 -10.351,-19.316 -22.22,-12.333 l -0.53,0.312 c -11.869,6.984 -24.129,1.723 -27.244,-11.691 l -0.14,-0.603 c -3.115,-13.414 -14.026,-16.837 -24.245,-7.606 l -0.455,0.411 c -10.219,9.231 -23.287,6.546 -29.038,-5.966 l -0.259,-0.562 c -5.751,-12.513 -17.128,-13.67 -25.281,-2.572 l -0.367,0.5 c -8.152,11.098 -21.493,11.098 -29.646,-0.001 l -0.366,-0.498 c -8.152,-11.099 -19.529,-9.942 -25.28,2.571 l -0.258,0.561 c -5.752,12.513 -18.819,15.198 -29.039,5.968 l -0.457,-0.413 c -10.219,-9.23 -21.13,-5.807 -24.245,7.607 l -0.14,0.603 c -3.116,13.414 -15.375,18.675 -27.244,11.691 l -0.531,-0.312 c -11.869,-6.984 -21.868,-1.434 -22.22,12.333 l -0.015,0.615 c -0.352,13.767 -11.302,21.387 -24.333,16.934 l -0.584,-0.2 c -13.031,-4.453 -21.707,2.995 -19.28,16.55 l 0.109,0.607 c 2.427,13.556 -6.764,23.225 -20.425,21.488 l -0.613,-0.078 c -13.661,-1.737 -20.66,7.306 -15.554,20.095 l 0.229,0.573 c 5.106,12.789 -1.951,24.11 -15.682,25.158 l -0.617,0.047 c -13.731,1.047 -18.767,11.313 -11.191,22.813 l 0.339,0.515 c 7.576,11.5 2.943,24.011 -10.296,27.802 l -0.593,0.17 c -13.239,3.792 -16.105,14.863 -6.368,24.601 l 0.434,0.435 c 9.736,9.739 7.716,22.926 -4.488,29.304 l -0.546,0.285 c -12.205,6.379 -12.783,17.799 -1.286,25.378 l 0.517,0.34 c 11.497,7.579 12.174,20.902 1.503,29.607 l -0.48,0.392 c -10.671,8.705 -8.939,20.008 3.849,25.118 l 0.568,0.228 c 12.788,5.11 16.133,18.026 7.433,28.701 l -0.391,0.48 c -8.7,10.675 -4.727,21.398 8.827,23.828 l 0.609,0.109 c 13.554,2.43 19.429,14.406 13.055,26.613 l -0.287,0.55 c -6.375,12.207 -0.326,21.912 13.44,21.566 l 0.62,-0.016 c 13.767,-0.346 21.932,10.204 18.146,23.445 l -0.169,0.591 c -3.787,13.24 4.091,21.528 17.506,18.418 l 0.603,-0.14 c 13.415,-3.11 23.537,5.58 22.494,19.312 l -0.046,0.617 c -1.044,13.732 8.342,20.263 20.856,14.515 l 0.56,-0.257 c 12.514,-5.748 24.178,0.726 25.92,14.386 l 0.079,0.613 c 1.742,13.661 12.25,18.17 23.351,10.021 l 0.497,-0.365 c 11.101,-8.149 23.83,-4.156 28.287,8.874 l 0.199,0.583 c 4.457,13.03 15.658,15.332 24.891,5.115 l 0.412,-0.456 c 9.234,-10.217 22.506,-8.868 29.494,2.998 z" /></g><g
           transform="translate(280.6586,551.5588)"
           id="g24"><path
             id="path26"
             style="fill:none;stroke:#ffffff;stroke-width:4;stroke-linecap:butt;stroke-linejoin:miter;stroke-miterlimit:10;stroke-dasharray:none;stroke-opacity:1"
             d="m 0,0 c 6.659,11.307 17.555,11.306 24.214,0 l 0.099,-0.168 c 6.658,-11.307 19.305,-12.593 28.103,-2.858 l 0.129,0.143 c 8.798,9.734 19.472,7.541 23.72,-4.874 l 0.063,-0.184 c 4.247,-12.415 16.377,-16.22 26.954,-8.455 l 0.153,0.113 c 10.578,7.765 20.59,3.469 22.25,-9.547 l 0.025,-0.192 c 1.66,-13.016 12.774,-19.185 24.699,-13.708 l 0.177,0.081 c 11.924,5.477 20.866,-0.748 19.872,-13.832 l -0.015,-0.196 c -0.994,-13.084 8.651,-21.365 21.434,-18.401 l 0.192,0.044 c 12.782,2.964 20.289,-4.933 16.682,-17.549 l -0.053,-0.185 c -3.608,-12.616 4.173,-22.668 17.291,-22.339 l 0.194,0.005 c 13.118,0.329 18.881,-8.918 12.807,-20.549 l -0.09,-0.172 c -6.074,-11.632 -0.476,-23.044 12.44,-25.36 l 0.192,-0.034 c 12.916,-2.316 16.701,-12.533 8.411,-22.704 l -0.127,-0.156 c -8.291,-10.171 -5.104,-22.477 7.081,-27.346 l 0.182,-0.072 c 12.185,-4.869 13.835,-15.638 3.667,-23.933 l -0.152,-0.124 c -10.168,-8.294 -9.524,-20.99 1.432,-28.212 l 0.163,-0.108 c 10.956,-7.222 10.404,-18.103 -1.226,-24.179 l -0.172,-0.09 c -11.63,-6.077 -13.555,-18.641 -4.278,-27.921 l 0.137,-0.138 c 9.277,-9.28 6.547,-19.828 -6.068,-23.441 l -0.187,-0.053 c -12.614,-3.613 -17.029,-15.534 -9.81,-26.491 l 0.107,-0.162 c 7.219,-10.958 2.421,-20.74 -10.663,-21.738 l -0.194,-0.015 c -13.083,-0.998 -19.808,-11.786 -14.944,-23.973 l 0.074,-0.184 c 4.864,-12.186 -1.806,-20.802 -14.823,-19.144 l -0.197,0.025 c -13.016,1.657 -21.774,-7.555 -19.461,-20.472 l 0.035,-0.194 c 2.313,-12.916 -5.954,-20.012 -18.371,-15.77 l -0.183,0.063 c -12.417,4.243 -22.851,-3.018 -23.186,-16.136 l -0.005,-0.192 c -0.335,-13.117 -9.863,-18.405 -21.172,-11.75 l -0.167,0.098 c -11.309,6.655 -22.99,1.642 -25.958,-11.139 l -0.045,-0.192 c -2.968,-12.782 -13.364,-16.043 -23.102,-7.248 l -0.142,0.129 c -9.738,8.796 -22.188,6.237 -27.668,-5.686 l -0.083,-0.181 c -5.48,-11.922 -16.32,-13.025 -24.088,-2.449 l -0.118,0.16 c -7.768,10.575 -20.479,10.575 -28.247,-10e-4 l -0.117,-0.159 c -7.768,-10.575 -18.607,-9.473 -24.087,2.449 l -0.084,0.181 c -5.48,11.923 -17.931,14.482 -27.668,5.686 l -0.143,-0.129 c -9.738,-8.795 -20.134,-5.534 -23.102,7.248 l -0.044,0.192 c -2.968,12.781 -14.65,17.794 -25.959,11.14 l -0.167,-0.099 c -11.31,-6.655 -20.837,-1.367 -21.172,11.75 l -0.005,0.192 c -0.335,13.118 -10.769,20.379 -23.186,16.136 l -0.184,-0.063 c -12.417,-4.242 -20.684,2.854 -18.371,15.77 l 0.035,0.194 c 2.313,12.917 -6.445,22.13 -19.462,20.474 l -0.196,-0.025 c -13.017,-1.656 -19.686,6.96 -14.82,19.146 l 0.072,0.181 c 4.866,12.187 -1.858,22.974 -14.942,23.972 l -0.195,0.015 c -13.084,0.998 -17.882,10.78 -10.663,21.738 l 0.107,0.162 c 7.219,10.957 2.804,22.878 -9.811,26.491 l -0.185,0.053 c -12.615,3.613 -15.346,14.162 -6.069,23.442 l 0.137,0.137 c 9.277,9.28 7.352,21.844 -4.278,27.921 l -0.171,0.09 c -11.63,6.076 -12.182,16.957 -1.227,24.179 l 0.165,0.109 c 10.955,7.222 11.599,19.917 1.431,28.21 l -0.153,0.126 c -10.168,8.294 -8.518,19.063 3.667,23.932 l 0.179,0.072 c 12.185,4.869 15.372,17.175 7.083,27.347 l -0.125,0.153 c -8.29,10.172 -4.504,20.39 8.411,22.706 l 0.191,0.034 c 12.915,2.316 18.513,13.728 12.44,25.36 l -0.09,0.172 c -6.074,11.631 -0.311,20.878 12.807,20.549 l 0.194,-0.005 c 13.118,-0.329 20.898,9.723 17.29,22.339 l -0.052,0.185 c -3.608,12.616 3.899,20.513 16.681,17.55 l 0.194,-0.045 c 12.783,-2.964 22.428,5.317 21.434,18.401 l -0.015,0.196 c -0.994,13.084 7.949,19.308 19.873,13.831 l 0.173,-0.079 c 11.924,-5.477 23.039,0.691 24.7,13.707 l 0.025,0.192 c 1.661,13.016 11.674,17.312 22.252,9.547 l 0.153,-0.113 c 10.577,-7.765 22.706,-3.96 26.953,8.455 l 0.063,0.184 c 4.247,12.415 14.92,14.608 23.718,4.873 l 0.128,-0.141 c 8.798,-9.735 21.445,-8.45 28.104,2.857 z" /></g><g
           transform="translate(500.9965,293.4276)"
           id="g28"><path
             id="path30"
             style="fill:none;stroke:#ffffff;stroke-width:4.86999989;stroke-linecap:butt;stroke-linejoin:miter;stroke-miterlimit:10;stroke-dasharray:none;stroke-opacity:1"
             d="m 0,0 c 0,-115.137 -93.338,-208.476 -208.478,-208.476 -115.14,0 -208.478,93.339 -208.478,208.476 0,115.142 93.338,208.479 208.478,208.479 C -93.338,208.479 0,115.142 0,0 Z" /></g><g
           transform="translate(460.5599,245.5088)"
           id="g32"><path
             id="path34"
             style="fill:none;stroke:#ffffff;stroke-width:2.06599998;stroke-linecap:butt;stroke-linejoin:miter;stroke-miterlimit:10;stroke-dasharray:none;stroke-opacity:1"
             d="M 0,0 C -5.357,-19.252 -13.921,-37.169 -25.075,-53.143" /></g><g
           transform="translate(446.2496,245.505)"
           id="g36"><path
             id="path38"
             style="fill:none;stroke:#ffffff;stroke-width:2.06599998;stroke-linecap:butt;stroke-linejoin:miter;stroke-miterlimit:10;stroke-dasharray:none;stroke-opacity:1"
             d="M 0,0 C -4.993,-16.407 -12.528,-31.707 -22.145,-45.442" /></g><g
           transform="translate(350.3763,457.7105)"
           id="g40"><path
             id="path42"
             style="fill:none;stroke:#ffffff;stroke-width:2.06599998;stroke-linecap:butt;stroke-linejoin:miter;stroke-miterlimit:10;stroke-dasharray:none;stroke-opacity:1"
             d="M 0,0 C 53.276,-18.919 94.693,-62.879 110.082,-117.725" /></g><g
           transform="translate(350.3763,443.0535)"
           id="g44"><path
             id="path46"
             style="fill:none;stroke:#ffffff;stroke-width:2.06599998;stroke-linecap:butt;stroke-linejoin:miter;stroke-miterlimit:10;stroke-dasharray:none;stroke-opacity:1"
             d="M 0,0 C 45.679,-17.812 81.256,-55.815 95.756,-103.044" /></g><g
           transform="translate(122.8843,245.5919)"
           id="g48"><path
             id="path50"
             style="fill:none;stroke:#ffffff;stroke-width:2.06599998;stroke-linecap:butt;stroke-linejoin:miter;stroke-miterlimit:10;stroke-dasharray:none;stroke-opacity:1"
             d="M 0,0 C 5.408,-19.476 14.097,-37.588 25.431,-53.705" /></g><g
           transform="translate(137.2024,245.5647)"
           id="g52"><path
             id="path54"
             style="fill:none;stroke:#ffffff;stroke-width:2.06599998;stroke-linecap:butt;stroke-linejoin:miter;stroke-miterlimit:10;stroke-dasharray:none;stroke-opacity:1"
             d="M 0,0 C 4.985,-16.404 12.51,-31.702 22.117,-45.437" /></g><g
           transform="translate(234.5507,458.2243)"
           id="g56"><path
             id="path58"
             style="fill:none;stroke:#ffffff;stroke-width:2.06599998;stroke-linecap:butt;stroke-linejoin:miter;stroke-miterlimit:10;stroke-dasharray:none;stroke-opacity:1"
             d="M 0,0 C -54.003,-18.638 -96.05,-62.932 -111.562,-118.315" /></g><g
           transform="translate(234.5507,443.6085)"
           id="g60"><path
             id="path62"
             style="fill:none;stroke:#ffffff;stroke-width:2.06599998;stroke-linecap:butt;stroke-linejoin:miter;stroke-miterlimit:10;stroke-dasharray:none;stroke-opacity:1"
             d="M 0,0 C -46.397,-17.574 -82.588,-55.902 -97.23,-103.657" /></g><g
           transform="translate(160.1503,169.8636)"
           id="g64"><path
             id="path66"
             style="fill:#ffffff;fill-opacity:1;fill-rule:nonzero;stroke:none"
             d="m 0,0 c -4.463,4.804 -2.649,8.978 1.643,12.968 l 5.695,5.293 c 4.291,3.99 8.575,5.482 13.037,0.677 4.185,-4.504 2.922,-8.376 -1.09,-12.106 l -2.968,3.194 c 2.43,2.259 4.199,4.066 1.718,6.737 -2.481,2.671 -4.586,1.225 -7.016,-1.034 L 3.886,9.099 C 1.701,7.068 0.081,4.608 2.341,2.176 4.613,-0.271 6.998,1.365 9.183,3.396 L 9.896,4.06 12.864,0.864 12.15,0.201 C 8.183,-3.486 4.162,-4.48 0,0" /></g><g
           transform="translate(184.5585,164.5081)"
           id="g68"><path
             id="path70"
             style="fill:#ffffff;fill-opacity:1;fill-rule:nonzero;stroke:none"
             d="M 0,0 -7.905,-9.903 -11.314,-7.186 5.712,14.146 9.121,11.427 1.824,2.286 7.79,-2.472 15.087,6.671 18.496,3.952 1.47,-17.379 l -3.409,2.718 7.905,9.904 z" /></g><g
           transform="translate(212.0526,155.929)"
           id="g72"><path
             id="path74"
             style="fill:#ffffff;fill-opacity:1;fill-rule:nonzero;stroke:none"
             d="m 0,0 -7.767,-9.006 3.768,-2.196 z m -14.553,-16.326 -3.768,2.196 19.378,20.279 3.768,-2.196 -8.074,-26.867 -3.768,2.196 2.018,6.717 -4.709,2.744 z" /></g><g
           transform="translate(231.4178,149.5179)"
           id="g76"><path
             id="path78"
             style="fill:#ffffff;fill-opacity:1;fill-rule:nonzero;stroke:none"
             d="m 0,0 -1.01,0.411 -3.309,-8.122 1.01,-0.41 C -0.042,-9.45 2.196,-9.061 3.397,-6.115 4.597,-3.168 3.267,-1.329 0,0 m 1.512,-12.185 -0.601,-14.483 -4.009,1.63 0.707,13.388 -3.031,1.232 -4.779,-11.732 -4.041,1.643 L -3.948,4.761 1.103,2.707 C 6.865,0.364 9.483,-2.737 7.438,-7.757 6.226,-10.732 4.174,-12.38 1.512,-12.185" /></g><g
           transform="translate(248.1864,146.5462)"
           id="g80"><path
             id="path82"
             style="fill:#ffffff;fill-opacity:1;fill-rule:nonzero;stroke:none"
             d="m 0,0 4.22,-1.106 -6.179,-23.562 7.384,-1.936 -0.741,-2.828 -11.605,3.042 z" /></g><g
           transform="translate(267.4408,127.4769)"
           id="g84"><path
             id="path86"
             style="fill:#ffffff;fill-opacity:1;fill-rule:nonzero;stroke:none"
             d="m 0,0 -1.347,-9.649 7.563,-1.06 -0.404,-2.895 -11.884,1.665 3.771,27.02 L 9.584,13.416 9.18,10.521 1.616,11.581 0.404,2.896 5.807,2.139 5.402,-0.756 Z" /></g><g
           transform="translate(289.7562,137.4671)"
           id="g88"><path
             id="path90"
             style="fill:#ffffff;fill-opacity:1;fill-rule:nonzero;stroke:none"
             d="m 0,0 c -2.112,0.019 -3.28,-1.083 -3.297,-2.94 -0.015,-1.691 0.962,-3.01 2.147,-3.873 l 5.415,-3.948 c 2.216,-1.634 4.323,-4.091 4.293,-7.578 -0.037,-4.051 -3.106,-6.353 -7.687,-6.313 -5.705,0.05 -8.367,3.38 -8.648,8.149 l 4.369,0.936 c 0.128,-2.819 1.004,-5.858 4.307,-5.887 2.181,-0.02 3.28,0.945 3.296,2.894 0.022,2.454 -1.652,3.747 -3.226,4.904 l -5.415,3.947 c -1.863,1.326 -3.257,3.502 -3.231,6.396 0.035,4.051 3.124,6.552 7.705,6.511 5.4,-0.048 8.304,-2.739 8.657,-7.175 L 4.316,-4.913 C 4.152,-2.321 3.083,-0.027 0,0" /></g><g
           transform="translate(318.2269,138.9691)"
           id="g92"><path
             id="path94"
             style="fill:#ffffff;fill-opacity:1;fill-rule:nonzero;stroke:none"
             d="m 0,0 -5.41,-0.66 2.889,-23.628 -4.327,-0.527 -2.889,23.628 -5.41,-0.66 -0.421,3.445 15.147,1.845 z" /></g><g
           transform="translate(327.5238,136.72)"
           id="g96"><path
             id="path98"
             style="fill:#ffffff;fill-opacity:1;fill-rule:nonzero;stroke:none"
             d="m 0,0 2.942,-11.469 c 0.727,-2.83 1.97,-4.521 5.14,-3.707 3.168,0.814 3.443,2.896 2.717,5.726 L 7.857,2.018 C 7.131,4.848 5.925,6.393 2.756,5.579 -0.413,4.765 -0.726,2.83 0,0 m 12.324,2.159 2.458,-9.581 c 1.363,-5.307 0.102,-9.307 -5.906,-10.849 -6.058,-1.557 -9.021,1.281 -10.401,6.661 l -2.458,9.582 c -1.381,5.38 -0.113,9.145 5.945,10.701 6.009,1.543 9.001,-1.208 10.362,-6.514" /></g><g
           transform="translate(351.7435,142.7737)"
           id="g100"><path
             id="path102"
             style="fill:#ffffff;fill-opacity:1;fill-rule:nonzero;stroke:none"
             d="M 0,0 7.103,-16.695 3.089,-18.404 -7.589,6.693 -4.578,7.975 9.048,-4.553 2.445,10.965 l 4.014,1.709 10.677,-25.098 -2.853,-1.215 z" /></g><g
           transform="translate(379.5785,140.5609)"
           id="g104"><path
             id="path106"
             style="fill:#ffffff;fill-opacity:1;fill-rule:nonzero;stroke:none"
             d="M 0,0 C 0.719,-1.272 1.31,-2.355 1.766,-3.233 2.902,-5.424 3.384,-7.04 0.979,-8.395 l -1.907,1.163 c 1.381,0.778 1.609,1.587 0.943,2.767 l -1.9,-1.07 -1.914,3.394 z" /></g><g
           transform="translate(389.5863,172.2855)"
           id="g108"><path
             id="path110"
             style="fill:#ffffff;fill-opacity:1;fill-rule:nonzero;stroke:none"
             d="m 0,0 c -1.634,-1.338 -1.827,-2.931 -0.649,-4.369 1.07,-1.307 2.665,-1.693 4.128,-1.598 l 6.69,0.438 c 2.75,0.165 5.942,-0.372 8.152,-3.069 2.567,-3.132 1.682,-6.867 -1.866,-9.769 -4.418,-3.614 -8.594,-2.763 -11.865,0.719 l 2.759,3.516 c 1.904,-2.083 4.522,-3.854 7.08,-1.761 1.688,1.381 1.915,2.826 0.679,4.333 -1.553,1.896 -3.669,1.817 -5.618,1.698 L 2.8,-10.3 c -2.28,-0.174 -4.745,0.603 -6.578,2.841 -2.568,3.133 -1.795,7.03 1.753,9.932 4.179,3.421 8.136,3.214 11.248,0.036 L 6.464,-1.007 C 4.679,0.876 2.388,1.952 0,0" /></g><g
           transform="translate(424.6068,171.6194)"
           id="g112"><path
             id="path114"
             style="fill:#ffffff;fill-opacity:1;fill-rule:nonzero;stroke:none"
             d="m 0,0 c -4.431,-4.837 -8.737,-3.363 -13.059,0.598 l -5.735,5.254 c -4.321,3.96 -6.153,8.112 -1.723,12.948 4.156,4.535 8.118,3.585 12.159,-0.118 l -2.948,-3.216 c -2.446,2.243 -4.39,3.862 -6.853,1.174 -2.464,-2.689 -0.854,-4.671 1.594,-6.914 l 7.183,-6.581 c 2.199,-2.016 4.781,-3.435 7.026,-0.986 2.255,2.462 0.433,4.709 -1.766,6.725 l -0.719,0.658 2.947,3.216 0.718,-0.658 C 2.819,8.438 4.133,4.51 0,0" /></g><g
           transform="translate(342.1176,360.1102)"
           id="g116"><path
             id="path118"
             style="fill:#ffffff;fill-opacity:1;fill-rule:nonzero;stroke:none"
             d="m 0,0 v 2.355 h -4.711 v 1.719 h -4.074 v 2.993 h -4.709 v 1.718 h -4.711 -4.711 v 1.719 h -4.527 v 2.993 h -4.712 v 1.719 h -4.711 v 2.132 h -4.712 v 1.719 H -46.289 -51 v 2.356 h -4.712 v 2.356 h -4.71 v 2.354 h -4.712 V 27.9 h -4.71 v 2.358 h -4.71 v 2.943 h -4.712 v 2.355 h -4.711 -4.711 v 2.357 h -4.711 -4.712 v -2.357 h -4.71 v -4.71 -4.711 h 4.71 v -2.356 h 4.712 v -4.711 h 4.711 v -2.356 h 4.711 4.711 v -2.355 h 4.712 v -2.945 h 4.71 V 9.057 h 4.71 V 7.29 h 4.712 V 4.934 h 4.71 V 2.578 H -51 V 0.223 h 4.711 v -4.711 h 4.711 v -1.719 h 4.712 v -2.135 h 4.711 v -1.718 h 4.529 v -2.991 h 4.71 v -1.719 h 4.711 4.711 v -1.719 h 4.709 v 1.719 h 4.074 v -1.719 H 0 v 2.356 h 4.71 v 4.71 4.712 L 4.71,0 Z" /></g><g
           transform="translate(325.389,431.5853)"
           id="g120"><path
             id="path122"
             style="fill:#ffffff;fill-opacity:1;fill-rule:nonzero;stroke:none"
             d="m 0,0 v 4.187 h 0.006 v 4.711 h -4.709 v 4.539 h 0.006 v 4.531 0.181 4.176 0.354 4.358 h -0.007 v 2.058 h 4.71 v 4.712 h -4.71 V 31.452 H -9.416 V 26.74 h 0.008 v -2.679 h -4.697 v -3.049 h -4.71 V 16.473 16.3 11.762 h -0.007 -4.711 V 7.07 7.052 2.359 2.341 h -4.712 v -4.712 h 4.703 v -4.691 -4.674 -0.038 -0.442 -4.23 h 0.003 v -4.713 -4.513 h -4.583 v -4.87 h -0.009 v -4.712 h -2.181 v -4.711 h 4.71 v 4.711 h 2.183 4.711 v 4.712 h 4.593 v 2.954 h 4.711 v 3.556 h 4.71 v 4.713 h 4.698 v 4.71 3.166 1.544 0.518 h 4.714 v 9.366 z" /></g><g
           transform="translate(285.4651,424.868)"
           id="g124"><path
             id="path126"
             style="fill:#ffffff;fill-opacity:1;fill-rule:nonzero;stroke:none"
             d="m 0,0 v 1.719 4.711 4.712 h -4.712 v 4.314 h -4.711 -4.704 v 4.471 4.712 4.712 4.709 h -2.355 v 4.712 h -4.714 V 34.06 h 2.356 v -4.709 -2.994 h -4.711 v -4.711 -2.294 h -4.71 V 14.641 9.93 6.937 h -4.711 V 2.225 -1.944 -2.485 -7.196 h 4.711 v -1.719 -4.712 h 4.71 v -2.416 h 4.711 v -1.719 h 4.706 v -2.355 h 4.711 v -1.718 h 2.355 v -4.712 h 2.356 v -4.711 H -1.011 0 1.698 v 4.711 h 0.655 v 4.712 H 0 v 2.991 h 4.709 v 4.711 4.712 4.08 0.63 l 0,4.711 z" /></g><g
           transform="translate(321.2758,396.0038)"
           id="g128"><path
             id="path130"
             style="fill:#ffffff;fill-opacity:1;fill-rule:nonzero;stroke:none"
             d="m 0,0 v -3.64 h -4.713 v -2.992 h -4.711 -4.711 v -3.129 h -4.713 v -4.71 h 4.713 v -1.583 h 4.711 4.711 v -1.718 H 0 v 3.638 H 4.709 9.42 v 2.992 h 4.711 v 2.553 h 4.712 v 4.711 4.711 h -4.712 v 2.16 H 9.42 L 9.42,0 H 4.709 Z" /></g><g
           transform="translate(293.9886,460.5682)"
           id="g132"><path
             id="path134"
             style="fill:#ffffff;fill-opacity:1;fill-rule:nonzero;stroke:none"
             d="m 0,0 v 1.029 h -0.008 v 4.688 h 2.465 v 4.71 H -2.255 V 5.717 H -4.719 V 1.005 h 0.006 v -3.377 h -4.709 v -4.539 -0.077 h -4.505 v -1.11 -1.245 -4.712 -1.475 -0.793 h 4.508 v -4.147 h 4.7 v -1.38 -0.063 -4.709 h 4.711 v 1.826 l 0.004,0.013 v 16.245 h 4.701 v 3.828 0.179 l 0,4.531 z" /></g><g
           transform="translate(260.0658,370.9588)"
           id="g136"><path
             id="path138"
             style="fill:#ffffff;fill-opacity:1;fill-rule:nonzero;stroke:none"
             d="m 0,0 h -4.712 v -2.333 h -4.689 v -2.945 h -4.711 v -2.356 h -4.711 v -1.767 h -4.712 v -4.711 -4.711 -4.71 h 4.712 v -2.944 h 4.711 v -2.357 h 4.711 v 2.944 h 4.712 v 2.356 H 0.02 v 1.766 h 4.711 v 2.357 h 4.712 v 2.943 h 4.71 v 2.356 h 4.711 v 4.143 h 0.013 v 4.71 h -0.013 v 0.569 h -4.699 v 1.2 L 9.451,-3.483 9.432,-1.155 H 4.722 V 1.788 H 0.01" /></g><g
           transform="translate(147.3559,306.6893)"
           id="g140"><path
             id="path142"
             style="fill:#ffffff;fill-opacity:1;fill-rule:nonzero;stroke:none"
             d="M 0,0 V -4.083 H -11.341 V 0 c 0,2.722 -2.087,4.809 -4.809,4.809 -2.631,0 -4.808,-2.087 -4.808,-4.809 v -29.215 c 0,-2.631 2.177,-4.808 4.808,-4.808 2.722,0 4.809,2.177 4.809,4.808 v 4.174 H 0 v -4.174 c 0,-8.891 -7.258,-16.058 -16.15,-16.058 -8.891,0 -16.058,7.167 -16.058,16.058 V 0 c 0,8.891 7.167,16.059 16.058,16.059 C -7.258,16.059 0,8.891 0,0" /></g><g
           transform="translate(167.3183,306.6893)"
           id="g144"><path
             id="path146"
             style="fill:#ffffff;fill-opacity:1;fill-rule:nonzero;stroke:none"
             d="m 0,0 v -29.215 c 0,-2.631 2.177,-4.808 4.809,-4.808 2.721,0 4.808,2.177 4.808,4.808 V 0 C 9.617,2.722 7.53,4.809 4.809,4.809 2.177,4.809 0,2.722 0,0 M -11.25,-29.215 V 0 c 0,8.891 7.167,16.059 16.059,16.059 C 13.7,16.059 20.958,8.891 20.958,0 v -29.215 c 0,-8.891 -7.258,-16.058 -16.149,-16.058 -8.892,0 -16.059,7.167 -16.059,16.058" /></g><g
           transform="translate(217.8563,279.0165)"
           id="g148"><path
             id="path150"
             style="fill:#ffffff;fill-opacity:1;fill-rule:nonzero;stroke:none"
             d="m 0,0 v 2.632 23.77 c 0,2.632 -2.087,4.809 -4.809,4.809 H -9.617 V 23.771 18.781 7.622 0.998 -4.809 h 4.808 C -2.087,-4.809 0,-2.631 0,0 m 11.341,0 c 0,-8.891 -7.258,-16.059 -16.15,-16.059 h -16.059 v 58.52 h 16.059 c 8.892,0 16.15,-7.167 16.15,-16.059 z" /></g><g
           transform="translate(237.9096,321.4779)"
           id="g152"><path
             id="path154"
             style="fill:#ffffff;fill-opacity:1;fill-rule:nonzero;stroke:none"
             d="M 0,0 H 32.209 V -11.25 H 11.25 V -23.68 H 26.583 V -34.931 H 11.25 V -47.27 H 32.209 V -58.52 L 0,-58.52 Z" /></g><g
           transform="translate(334.266,306.6893)"
           id="g156"><path
             id="path158"
             style="fill:#ffffff;fill-opacity:1;fill-rule:nonzero;stroke:none"
             d="M 0,0 V -4.083 H -11.342 V 0 c 0,2.722 -2.086,4.809 -4.808,4.809 -2.631,0 -4.809,-2.087 -4.809,-4.809 v -29.215 c 0,-2.631 2.178,-4.808 4.809,-4.808 2.722,0 4.808,2.177 4.808,4.808 v 4.174 H 0 v -4.174 c 0,-8.891 -7.259,-16.058 -16.15,-16.058 -8.891,0 -16.059,7.167 -16.059,16.058 V 0 c 0,8.891 7.168,16.059 16.059,16.059 C -7.259,16.059 0,8.891 0,0" /></g><g
           transform="translate(354.2279,306.6893)"
           id="g160"><path
             id="path162"
             style="fill:#ffffff;fill-opacity:1;fill-rule:nonzero;stroke:none"
             d="M 0,0 V -17.148 H 9.617 V 0 C 9.617,2.631 7.531,4.809 4.809,4.809 2.178,4.809 0,2.631 0,0 M 0,-28.217 V -43.731 H -11.25 V 0 c 0,8.891 7.168,16.059 16.059,16.059 8.891,0 16.15,-7.168 16.15,-16.059 V -43.731 H 9.617 v 15.514 z" /></g><g
           transform="translate(383.8979,321.4779)"
           id="g164"><path
             id="path166"
             style="fill:#ffffff;fill-opacity:1;fill-rule:nonzero;stroke:none"
             d="m 0,0 h 16.513 l 5.172,-27.582 0.634,-10.161 h 0.182 0.182 L 23.317,-27.582 28.489,0 h 16.512 v -58.52 h -11.25 v 31.483 l 0.454,8.619 H 33.933 L 27.128,-58.52 h -4.627 -4.627 l -6.805,40.102 h -0.272 l 0.453,-8.619 V -58.52 l -11.25,0 z" /></g><g
           transform="translate(448.8617,310.2274)"
           id="g168"><path
             id="path170"
             style="fill:#ffffff;fill-opacity:1;fill-rule:nonzero;stroke:none"
             d="m 0,0 v -20.504 h 4.809 c 2.722,0 4.808,2.177 4.808,4.808 V -4.809 C 9.617,-2.177 7.531,0 4.809,0 Z m 4.809,11.25 c 8.891,0 16.15,-7.167 16.15,-16.059 v -10.887 c 0,-8.891 -7.259,-16.059 -16.15,-16.059 H 0 V -47.27 h -11.25 v 58.52 z" /></g><path
           id="path172"
           style="fill:#ffffff;fill-opacity:1;fill-rule:nonzero;stroke:none"
           d="m 355.653,233.523 h -14.356 v -8.186 h 14.356 z" /><path
           id="path174"
           style="fill:#ffffff;fill-opacity:1;fill-rule:nonzero;stroke:none"
           d="m 341.296,208.966 h 7.179 v 8.185 h -7.179 z" /><path
           id="path176"
           style="fill:#ffffff;fill-opacity:1;fill-rule:nonzero;stroke:none"
           d="m 334.119,217.151 h 7.178 v 8.187 h -7.178 z" /><path
           id="path178"
           style="fill:#ffffff;fill-opacity:1;fill-rule:nonzero;stroke:none"
           d="m 355.653,208.966 h -7.178 v -8.186 h 7.178 z" /><path
           id="path180"
           style="fill:#ffffff;fill-opacity:1;fill-rule:nonzero;stroke:none"
           d="m 348.475,200.78 h -14.356 v -8.185 h 14.356 z" /><path
           id="path182"
           style="fill:#ffffff;fill-opacity:1;fill-rule:nonzero;stroke:none"
           d="m 250.767,233.576 h 6 v -8.22 h -6 z m -6,-8.22 h 6 v -8.22 h -6 z m 0,-16.44 h -12 v -16.44 h -6 v 41.1 h 6 v -16.44 h 12 v -8.22 h 6 v -8.22 h 6 v -8.22 h -6 v 8.22 h -6 z" /><g
           transform="translate(262.767,233.5755)"
           id="g184"><path
             id="path186"
             style="fill:#ffffff;fill-opacity:1;fill-rule:nonzero;stroke:none"
             d="M 0,0 H 30 V -8.22 H 18 V -32.88 H 30 V -41.1 H 0 v 8.22 H 12 V -8.22 H 0 Z" /></g><g
           transform="translate(298.766,233.5755)"
           id="g188"><path
             id="path190"
             style="fill:#ffffff;fill-opacity:1;fill-rule:nonzero;stroke:none"
             d="m 0,0 h 24 v -8.22 h 6 V -32.88 H 24 V -8.22 H 6 V -32.88 H 24 V -41.1 H 0 Z" /></g></g></g></g></svg>